<mxfile host="app.diagrams.net" agent="Mozilla/5.0 (Macintosh; Intel Mac OS X 10_15_7) AppleWebKit/537.36 (KHTML, like Gecko) Chrome/137.0.0.0 Safari/537.36" version="27.2.0" pages="5">
  <diagram name="Domain" id="Ek-Hhzff9p4PXYVXdnhu">
    <mxGraphModel dx="1170" dy="751" grid="1" gridSize="10" guides="1" tooltips="1" connect="1" arrows="1" fold="1" page="1" pageScale="1" pageWidth="827" pageHeight="1169" math="0" shadow="0">
      <root>
        <mxCell id="0" />
        <mxCell id="1" parent="0" />
        <mxCell id="GzYXLZxgVTbowOX6vlku-2" value="User" style="rounded=0;whiteSpace=wrap;html=1;shadow=1;fillColor=#dae8fc;strokeColor=#6c8ebf;" vertex="1" parent="1">
          <mxGeometry x="20" y="40" width="120" height="60" as="geometry" />
        </mxCell>
        <mxCell id="GzYXLZxgVTbowOX6vlku-3" value="Contractor/Employee" style="rounded=0;whiteSpace=wrap;html=1;" vertex="1" parent="1">
          <mxGeometry x="20" y="210" width="120" height="60" as="geometry" />
        </mxCell>
        <mxCell id="GzYXLZxgVTbowOX6vlku-4" value="Company" style="rounded=0;whiteSpace=wrap;html=1;" vertex="1" parent="1">
          <mxGeometry x="20" y="120" width="120" height="60" as="geometry" />
        </mxCell>
        <mxCell id="GzYXLZxgVTbowOX6vlku-5" value="Wallet" style="rounded=0;whiteSpace=wrap;html=1;shadow=1;strokeColor=#6c8ebf;align=center;verticalAlign=middle;fontFamily=Helvetica;fontSize=12;fontColor=default;fillColor=#dae8fc;" vertex="1" parent="1">
          <mxGeometry x="190" y="40" width="120" height="60" as="geometry" />
        </mxCell>
        <mxCell id="GzYXLZxgVTbowOX6vlku-6" value="Transaction" style="rounded=0;whiteSpace=wrap;html=1;" vertex="1" parent="1">
          <mxGeometry x="190" y="120" width="120" height="60" as="geometry" />
        </mxCell>
        <mxCell id="GzYXLZxgVTbowOX6vlku-9" value="Payment Account" style="rounded=0;whiteSpace=wrap;html=1;" vertex="1" parent="1">
          <mxGeometry x="20" y="300" width="120" height="60" as="geometry" />
        </mxCell>
        <mxCell id="GzYXLZxgVTbowOX6vlku-10" value="Payment" style="rounded=0;whiteSpace=wrap;html=1;shadow=1;strokeColor=#6c8ebf;align=center;verticalAlign=middle;fontFamily=Helvetica;fontSize=12;fontColor=default;fillColor=#dae8fc;" vertex="1" parent="1">
          <mxGeometry x="340" y="40" width="120" height="60" as="geometry" />
        </mxCell>
        <mxCell id="GzYXLZxgVTbowOX6vlku-18" value="Account" style="swimlane;dashed=1;fillColor=#dae8fc;strokeColor=#6c8ebf;" vertex="1" parent="1">
          <mxGeometry x="10" y="10" width="150" height="361" as="geometry" />
        </mxCell>
        <mxCell id="GzYXLZxgVTbowOX6vlku-19" value="Wallet" style="swimlane;dashed=1;fillColor=#dae8fc;strokeColor=#6c8ebf;" vertex="1" parent="1">
          <mxGeometry x="175" y="10" width="150" height="361" as="geometry" />
        </mxCell>
        <mxCell id="GzYXLZxgVTbowOX6vlku-8" value="B&lt;span style=&quot;background-color: transparent; color: light-dark(rgb(0, 0, 0), rgb(255, 255, 255));&quot;&gt;alance&lt;/span&gt;" style="rounded=0;whiteSpace=wrap;html=1;" vertex="1" parent="GzYXLZxgVTbowOX6vlku-19">
          <mxGeometry x="15" y="190" width="120" height="60" as="geometry" />
        </mxCell>
        <mxCell id="GzYXLZxgVTbowOX6vlku-20" value="Financial" style="swimlane;dashed=1;fillColor=#dae8fc;strokeColor=#6c8ebf;" vertex="1" parent="1">
          <mxGeometry x="330" y="10" width="150" height="361" as="geometry" />
        </mxCell>
        <mxCell id="GzYXLZxgVTbowOX6vlku-14" value="Refund" style="rounded=0;whiteSpace=wrap;html=1;" vertex="1" parent="GzYXLZxgVTbowOX6vlku-20">
          <mxGeometry x="12" y="110" width="120" height="60" as="geometry" />
        </mxCell>
        <mxCell id="GzYXLZxgVTbowOX6vlku-16" value="Payment History" style="rounded=0;whiteSpace=wrap;html=1;" vertex="1" parent="GzYXLZxgVTbowOX6vlku-20">
          <mxGeometry x="13" y="190" width="120" height="60" as="geometry" />
        </mxCell>
        <mxCell id="GzYXLZxgVTbowOX6vlku-21" value="External" style="swimlane;dashed=1;fillColor=#dae8fc;strokeColor=#6c8ebf;" vertex="1" parent="1">
          <mxGeometry x="490" y="10" width="150" height="361" as="geometry" />
        </mxCell>
        <mxCell id="GzYXLZxgVTbowOX6vlku-13" value="3rd-part&lt;br&gt;Payment provider" style="rounded=0;whiteSpace=wrap;html=1;" vertex="1" parent="GzYXLZxgVTbowOX6vlku-21">
          <mxGeometry x="15" y="30" width="120" height="60" as="geometry" />
        </mxCell>
      </root>
    </mxGraphModel>
  </diagram>
  <diagram name="Solution design" id="aVyCqtGsAMwNXdEaSG4V">
    <mxGraphModel dx="1170" dy="751" grid="1" gridSize="10" guides="1" tooltips="1" connect="1" arrows="1" fold="1" page="1" pageScale="1" pageWidth="827" pageHeight="1169" math="0" shadow="0">
      <root>
        <mxCell id="dnytgtB70Ih8vU8NxAH2-0" />
        <mxCell id="dnytgtB70Ih8vU8NxAH2-1" parent="dnytgtB70Ih8vU8NxAH2-0" />
        <mxCell id="S82ImdywmHYfqRLbEEnN-0" style="edgeStyle=orthogonalEdgeStyle;rounded=0;orthogonalLoop=1;jettySize=auto;html=1;exitX=1;exitY=0.75;exitDx=0;exitDy=0;entryX=0;entryY=0.5;entryDx=0;entryDy=0;" edge="1" parent="dnytgtB70Ih8vU8NxAH2-1" source="wrZ5Dsxb3-6mwCu-saWG-0" target="wrZ5Dsxb3-6mwCu-saWG-3">
          <mxGeometry relative="1" as="geometry" />
        </mxCell>
        <mxCell id="wrZ5Dsxb3-6mwCu-saWG-0" value="&lt;div&gt;&lt;br&gt;&lt;/div&gt;&lt;div&gt;&lt;br&gt;&lt;/div&gt;&lt;div&gt;Contractor/ Employee&lt;/div&gt;" style="shape=actor;whiteSpace=wrap;html=1;fillColor=#fff2cc;gradientColor=#ffd966;strokeColor=#d6b656;" parent="dnytgtB70Ih8vU8NxAH2-1" vertex="1">
          <mxGeometry x="8" y="256" width="80" height="100" as="geometry" />
        </mxCell>
        <mxCell id="wrZ5Dsxb3-6mwCu-saWG-1" value="Ontop" style="swimlane;fillColor=#dae8fc;gradientColor=#7ea6e0;strokeColor=#6c8ebf;" parent="dnytgtB70Ih8vU8NxAH2-1" vertex="1">
          <mxGeometry x="220" y="40" width="760" height="650" as="geometry" />
        </mxCell>
        <mxCell id="cCacokfjiz7VzcCR6r9h-1" style="edgeStyle=orthogonalEdgeStyle;rounded=0;orthogonalLoop=1;jettySize=auto;html=1;exitX=1;exitY=0.75;exitDx=0;exitDy=0;entryX=0;entryY=0.75;entryDx=0;entryDy=0;dashed=1;" parent="wrZ5Dsxb3-6mwCu-saWG-1" source="wrZ5Dsxb3-6mwCu-saWG-2" target="wrZ5Dsxb3-6mwCu-saWG-11" edge="1">
          <mxGeometry relative="1" as="geometry" />
        </mxCell>
        <mxCell id="cCacokfjiz7VzcCR6r9h-2" value="List transactions" style="edgeLabel;html=1;align=center;verticalAlign=middle;resizable=0;points=[];" parent="cCacokfjiz7VzcCR6r9h-1" vertex="1" connectable="0">
          <mxGeometry x="-0.1165" relative="1" as="geometry">
            <mxPoint as="offset" />
          </mxGeometry>
        </mxCell>
        <mxCell id="wrZ5Dsxb3-6mwCu-saWG-2" value="API gateway" style="rounded=1;whiteSpace=wrap;html=1;fillColor=#e6d0de;gradientColor=#d5739d;strokeColor=#996185;" parent="wrZ5Dsxb3-6mwCu-saWG-1" vertex="1">
          <mxGeometry x="50" y="260" width="120" height="60" as="geometry" />
        </mxCell>
        <mxCell id="wrZ5Dsxb3-6mwCu-saWG-7" value="Wallet DB&lt;div&gt;[SQL]&lt;/div&gt;" style="shape=cylinder3;whiteSpace=wrap;html=1;boundedLbl=1;backgroundOutline=1;size=15;fillColor=#f5f5f5;gradientColor=#b3b3b3;strokeColor=#666666;" parent="wrZ5Dsxb3-6mwCu-saWG-1" vertex="1">
          <mxGeometry x="513" y="480" width="85" height="80" as="geometry" />
        </mxCell>
        <mxCell id="wrZ5Dsxb3-6mwCu-saWG-8" value="User DB&lt;div&gt;[SQL]&lt;/div&gt;" style="shape=cylinder3;whiteSpace=wrap;html=1;boundedLbl=1;backgroundOutline=1;size=15;fillColor=#f5f5f5;gradientColor=#b3b3b3;strokeColor=#666666;" parent="wrZ5Dsxb3-6mwCu-saWG-1" vertex="1">
          <mxGeometry x="507" y="50" width="90" height="80" as="geometry" />
        </mxCell>
        <mxCell id="wrZ5Dsxb3-6mwCu-saWG-9" value="Payment DB&lt;div&gt;[NoSql]&lt;/div&gt;" style="shape=cylinder3;whiteSpace=wrap;html=1;boundedLbl=1;backgroundOutline=1;size=15;fillColor=#f5f5f5;gradientColor=#b3b3b3;strokeColor=#666666;" parent="wrZ5Dsxb3-6mwCu-saWG-1" vertex="1">
          <mxGeometry x="509" y="250" width="90" height="80" as="geometry" />
        </mxCell>
        <mxCell id="wrZ5Dsxb3-6mwCu-saWG-34" style="edgeStyle=orthogonalEdgeStyle;rounded=0;orthogonalLoop=1;jettySize=auto;html=1;exitX=0.5;exitY=1;exitDx=0;exitDy=0;entryX=0.5;entryY=0;entryDx=0;entryDy=0;dashed=1;" parent="wrZ5Dsxb3-6mwCu-saWG-1" source="wrZ5Dsxb3-6mwCu-saWG-11" target="wrZ5Dsxb3-6mwCu-saWG-14" edge="1">
          <mxGeometry relative="1" as="geometry" />
        </mxCell>
        <mxCell id="wrZ5Dsxb3-6mwCu-saWG-35" value="Fetch/ Update balance [http]" style="edgeLabel;html=1;align=center;verticalAlign=middle;resizable=0;points=[];" parent="wrZ5Dsxb3-6mwCu-saWG-34" vertex="1" connectable="0">
          <mxGeometry x="-0.24" y="-3" relative="1" as="geometry">
            <mxPoint as="offset" />
          </mxGeometry>
        </mxCell>
        <mxCell id="MMaYjDYH_nyFm4tbU_4F-16" style="edgeStyle=orthogonalEdgeStyle;rounded=0;orthogonalLoop=1;jettySize=auto;html=1;exitX=0.5;exitY=0;exitDx=0;exitDy=0;entryX=0;entryY=0.5;entryDx=0;entryDy=0;dashed=1;" parent="wrZ5Dsxb3-6mwCu-saWG-1" source="wrZ5Dsxb3-6mwCu-saWG-11" target="wrZ5Dsxb3-6mwCu-saWG-29" edge="1">
          <mxGeometry relative="1" as="geometry" />
        </mxCell>
        <mxCell id="MMaYjDYH_nyFm4tbU_4F-17" value="Sends Notification&lt;div&gt;&lt;br&gt;&lt;/div&gt;" style="edgeLabel;html=1;align=center;verticalAlign=middle;resizable=0;points=[];" parent="MMaYjDYH_nyFm4tbU_4F-16" vertex="1" connectable="0">
          <mxGeometry x="-0.2079" y="1" relative="1" as="geometry">
            <mxPoint as="offset" />
          </mxGeometry>
        </mxCell>
        <mxCell id="wrZ5Dsxb3-6mwCu-saWG-11" value="Payment Service" style="shape=hexagon;perimeter=hexagonPerimeter2;whiteSpace=wrap;html=1;fixedSize=1;fillColor=#dae8fc;gradientColor=#7ea6e0;strokeColor=#6c8ebf;" parent="wrZ5Dsxb3-6mwCu-saWG-1" vertex="1">
          <mxGeometry x="337" y="250" width="120" height="80" as="geometry" />
        </mxCell>
        <mxCell id="wrZ5Dsxb3-6mwCu-saWG-13" value="User Profile Service" style="shape=hexagon;perimeter=hexagonPerimeter2;whiteSpace=wrap;html=1;fixedSize=1;fillColor=#dae8fc;gradientColor=#7ea6e0;strokeColor=#6c8ebf;" parent="wrZ5Dsxb3-6mwCu-saWG-1" vertex="1">
          <mxGeometry x="327" y="50" width="130" height="80" as="geometry" />
        </mxCell>
        <mxCell id="wrZ5Dsxb3-6mwCu-saWG-14" value="Wallet Service" style="shape=hexagon;perimeter=hexagonPerimeter2;whiteSpace=wrap;html=1;fixedSize=1;fillColor=#dae8fc;gradientColor=#7ea6e0;strokeColor=#6c8ebf;" parent="wrZ5Dsxb3-6mwCu-saWG-1" vertex="1">
          <mxGeometry x="337" y="480" width="120" height="80" as="geometry" />
        </mxCell>
        <mxCell id="wrZ5Dsxb3-6mwCu-saWG-15" value="," style="endArrow=classic;html=1;rounded=0;dashed=1;exitX=1;exitY=0.5;exitDx=0;exitDy=0;" parent="wrZ5Dsxb3-6mwCu-saWG-1" source="wrZ5Dsxb3-6mwCu-saWG-3" edge="1">
          <mxGeometry width="50" height="50" relative="1" as="geometry">
            <mxPoint x="120" y="293" as="sourcePoint" />
            <mxPoint x="50" y="290" as="targetPoint" />
          </mxGeometry>
        </mxCell>
        <mxCell id="wrZ5Dsxb3-6mwCu-saWG-27" value="Text" style="edgeLabel;html=1;align=center;verticalAlign=middle;resizable=0;points=[];" parent="wrZ5Dsxb3-6mwCu-saWG-15" vertex="1" connectable="0">
          <mxGeometry x="-0.3" y="-1" relative="1" as="geometry">
            <mxPoint x="-3" as="offset" />
          </mxGeometry>
        </mxCell>
        <mxCell id="wrZ5Dsxb3-6mwCu-saWG-33" value="routes&lt;div&gt;&lt;br&gt;&lt;/div&gt;" style="edgeLabel;html=1;align=center;verticalAlign=middle;resizable=0;points=[];" parent="wrZ5Dsxb3-6mwCu-saWG-15" vertex="1" connectable="0">
          <mxGeometry x="-0.2" y="-6" relative="1" as="geometry">
            <mxPoint x="-3" as="offset" />
          </mxGeometry>
        </mxCell>
        <mxCell id="wrZ5Dsxb3-6mwCu-saWG-17" value="" style="endArrow=classic;html=1;rounded=0;entryX=0;entryY=0.5;entryDx=0;entryDy=0;dashed=1;exitX=1;exitY=0.5;exitDx=0;exitDy=0;" parent="wrZ5Dsxb3-6mwCu-saWG-1" source="wrZ5Dsxb3-6mwCu-saWG-2" target="wrZ5Dsxb3-6mwCu-saWG-11" edge="1">
          <mxGeometry width="50" height="50" relative="1" as="geometry">
            <mxPoint x="137" y="330" as="sourcePoint" />
            <mxPoint x="177" y="330" as="targetPoint" />
            <Array as="points" />
          </mxGeometry>
        </mxCell>
        <mxCell id="wrZ5Dsxb3-6mwCu-saWG-37" value="Withdraw [http]" style="edgeLabel;html=1;align=center;verticalAlign=middle;resizable=0;points=[];" parent="wrZ5Dsxb3-6mwCu-saWG-17" vertex="1" connectable="0">
          <mxGeometry x="-0.0667" y="4" relative="1" as="geometry">
            <mxPoint as="offset" />
          </mxGeometry>
        </mxCell>
        <mxCell id="wrZ5Dsxb3-6mwCu-saWG-18" value="" style="endArrow=classic;html=1;rounded=0;entryX=0.008;entryY=0.425;entryDx=0;entryDy=0;dashed=1;entryPerimeter=0;" parent="wrZ5Dsxb3-6mwCu-saWG-1" source="wrZ5Dsxb3-6mwCu-saWG-2" target="wrZ5Dsxb3-6mwCu-saWG-14" edge="1">
          <mxGeometry width="50" height="50" relative="1" as="geometry">
            <mxPoint x="67" y="420" as="sourcePoint" />
            <mxPoint x="107" y="420" as="targetPoint" />
          </mxGeometry>
        </mxCell>
        <mxCell id="wrZ5Dsxb3-6mwCu-saWG-31" value="Fetch balance" style="edgeLabel;html=1;align=center;verticalAlign=middle;resizable=0;points=[];" parent="wrZ5Dsxb3-6mwCu-saWG-18" vertex="1" connectable="0">
          <mxGeometry x="-0.161" y="-1" relative="1" as="geometry">
            <mxPoint y="1" as="offset" />
          </mxGeometry>
        </mxCell>
        <mxCell id="wrZ5Dsxb3-6mwCu-saWG-19" value="Create/ Edit/ Fetch user bank accounts&lt;div&gt;&lt;br&gt;&lt;/div&gt;" style="endArrow=classic;html=1;rounded=0;entryX=0;entryY=0.5;entryDx=0;entryDy=0;exitX=0.5;exitY=0;exitDx=0;exitDy=0;dashed=1;" parent="wrZ5Dsxb3-6mwCu-saWG-1" source="wrZ5Dsxb3-6mwCu-saWG-2" target="wrZ5Dsxb3-6mwCu-saWG-13" edge="1">
          <mxGeometry width="50" height="50" relative="1" as="geometry">
            <mxPoint x="237" y="390" as="sourcePoint" />
            <mxPoint x="287" y="340" as="targetPoint" />
          </mxGeometry>
        </mxCell>
        <mxCell id="wrZ5Dsxb3-6mwCu-saWG-25" style="edgeStyle=orthogonalEdgeStyle;rounded=0;orthogonalLoop=1;jettySize=auto;html=1;exitX=1;exitY=0.5;exitDx=0;exitDy=0;entryX=0;entryY=0.5;entryDx=0;entryDy=0;entryPerimeter=0;dashed=1;" parent="wrZ5Dsxb3-6mwCu-saWG-1" source="wrZ5Dsxb3-6mwCu-saWG-14" target="wrZ5Dsxb3-6mwCu-saWG-7" edge="1">
          <mxGeometry relative="1" as="geometry" />
        </mxCell>
        <mxCell id="MMaYjDYH_nyFm4tbU_4F-2" value="R/W" style="edgeLabel;html=1;align=center;verticalAlign=middle;resizable=0;points=[];" parent="wrZ5Dsxb3-6mwCu-saWG-25" vertex="1" connectable="0">
          <mxGeometry x="-0.52" relative="1" as="geometry">
            <mxPoint as="offset" />
          </mxGeometry>
        </mxCell>
        <mxCell id="wrZ5Dsxb3-6mwCu-saWG-26" style="edgeStyle=orthogonalEdgeStyle;rounded=0;orthogonalLoop=1;jettySize=auto;html=1;exitX=1;exitY=0.5;exitDx=0;exitDy=0;entryX=0;entryY=0.5;entryDx=0;entryDy=0;entryPerimeter=0;dashed=1;" parent="wrZ5Dsxb3-6mwCu-saWG-1" source="wrZ5Dsxb3-6mwCu-saWG-13" target="wrZ5Dsxb3-6mwCu-saWG-8" edge="1">
          <mxGeometry relative="1" as="geometry" />
        </mxCell>
        <mxCell id="MMaYjDYH_nyFm4tbU_4F-0" value="R/W" style="edgeLabel;html=1;align=center;verticalAlign=middle;resizable=0;points=[];" parent="wrZ5Dsxb3-6mwCu-saWG-26" vertex="1" connectable="0">
          <mxGeometry x="-0.36" y="1" relative="1" as="geometry">
            <mxPoint as="offset" />
          </mxGeometry>
        </mxCell>
        <mxCell id="wrZ5Dsxb3-6mwCu-saWG-29" value="&lt;font style=&quot;color: rgb(0, 0, 0);&quot;&gt;Message Se&lt;span style=&quot;background-color: transparent;&quot;&gt;rvice&lt;/span&gt;&lt;/font&gt;" style="shape=ext;double=1;rounded=1;whiteSpace=wrap;html=1;" parent="wrZ5Dsxb3-6mwCu-saWG-1" vertex="1">
          <mxGeometry x="437" y="159" width="110" height="60" as="geometry" />
        </mxCell>
        <mxCell id="wrZ5Dsxb3-6mwCu-saWG-23" value="" style="endArrow=classic;html=1;rounded=0;exitX=1;exitY=0.5;exitDx=0;exitDy=0;dashed=1;" parent="wrZ5Dsxb3-6mwCu-saWG-1" source="wrZ5Dsxb3-6mwCu-saWG-11" target="wrZ5Dsxb3-6mwCu-saWG-9" edge="1">
          <mxGeometry width="50" height="50" relative="1" as="geometry">
            <mxPoint x="227" y="390" as="sourcePoint" />
            <mxPoint x="497" y="290" as="targetPoint" />
          </mxGeometry>
        </mxCell>
        <mxCell id="MMaYjDYH_nyFm4tbU_4F-1" value="R/W" style="edgeLabel;html=1;align=center;verticalAlign=middle;resizable=0;points=[];" parent="wrZ5Dsxb3-6mwCu-saWG-23" vertex="1" connectable="0">
          <mxGeometry x="-0.3846" y="-2" relative="1" as="geometry">
            <mxPoint as="offset" />
          </mxGeometry>
        </mxCell>
        <mxCell id="wrZ5Dsxb3-6mwCu-saWG-39" value="Identity Server" style="shape=ext;double=1;rounded=1;whiteSpace=wrap;html=1;" parent="wrZ5Dsxb3-6mwCu-saWG-1" vertex="1">
          <mxGeometry x="67" y="50" width="110" height="60" as="geometry" />
        </mxCell>
        <mxCell id="MMaYjDYH_nyFm4tbU_4F-7" value="&lt;font style=&quot;color: rgb(153, 0, 0);&quot;&gt;Event Message Broker&lt;/font&gt;" style="shape=cylinder3;whiteSpace=wrap;html=1;boundedLbl=1;backgroundOutline=1;size=15;direction=south;shadow=1;fillColor=#d5e8d4;gradientColor=#97d077;strokeColor=#82b366;" parent="wrZ5Dsxb3-6mwCu-saWG-1" vertex="1">
          <mxGeometry x="617" y="395" width="113" height="60" as="geometry" />
        </mxCell>
        <mxCell id="MMaYjDYH_nyFm4tbU_4F-8" value="&lt;font style=&quot;color: rgb(153, 0, 0);&quot;&gt;Webhook Gateway&lt;/font&gt;" style="rounded=1;whiteSpace=wrap;html=1;shadow=1;" parent="wrZ5Dsxb3-6mwCu-saWG-1" vertex="1">
          <mxGeometry x="627" y="229" width="120" height="60" as="geometry" />
        </mxCell>
        <mxCell id="MMaYjDYH_nyFm4tbU_4F-9" style="edgeStyle=orthogonalEdgeStyle;rounded=0;orthogonalLoop=1;jettySize=auto;html=1;exitX=0.5;exitY=1;exitDx=0;exitDy=0;entryX=0.067;entryY=0.372;entryDx=0;entryDy=0;entryPerimeter=0;dashed=1;" parent="wrZ5Dsxb3-6mwCu-saWG-1" source="MMaYjDYH_nyFm4tbU_4F-8" target="MMaYjDYH_nyFm4tbU_4F-7" edge="1">
          <mxGeometry relative="1" as="geometry" />
        </mxCell>
        <mxCell id="MMaYjDYH_nyFm4tbU_4F-10" value="Produces data&lt;div&gt;&lt;br&gt;&lt;/div&gt;" style="edgeLabel;html=1;align=center;verticalAlign=middle;resizable=0;points=[];" parent="MMaYjDYH_nyFm4tbU_4F-9" vertex="1" connectable="0">
          <mxGeometry x="0.2262" relative="1" as="geometry">
            <mxPoint as="offset" />
          </mxGeometry>
        </mxCell>
        <mxCell id="MMaYjDYH_nyFm4tbU_4F-11" style="edgeStyle=orthogonalEdgeStyle;rounded=0;orthogonalLoop=1;jettySize=auto;html=1;exitX=0.625;exitY=1;exitDx=0;exitDy=0;entryX=0;entryY=0;entryDx=0;entryDy=77.25;entryPerimeter=0;dashed=1;" parent="wrZ5Dsxb3-6mwCu-saWG-1" source="wrZ5Dsxb3-6mwCu-saWG-11" target="MMaYjDYH_nyFm4tbU_4F-7" edge="1">
          <mxGeometry relative="1" as="geometry" />
        </mxCell>
        <mxCell id="MMaYjDYH_nyFm4tbU_4F-12" value="produces&lt;span style=&quot;background-color: light-dark(#ffffff, var(--ge-dark-color, #121212)); color: light-dark(rgb(0, 0, 0), rgb(255, 255, 255));&quot;&gt;/consumes events&lt;/span&gt;" style="edgeLabel;html=1;align=center;verticalAlign=middle;resizable=0;points=[];" parent="MMaYjDYH_nyFm4tbU_4F-11" vertex="1" connectable="0">
          <mxGeometry x="0.017" y="1" relative="1" as="geometry">
            <mxPoint x="1" y="1" as="offset" />
          </mxGeometry>
        </mxCell>
        <mxCell id="MMaYjDYH_nyFm4tbU_4F-13" style="edgeStyle=orthogonalEdgeStyle;rounded=0;orthogonalLoop=1;jettySize=auto;html=1;exitX=0.855;exitY=1;exitDx=0;exitDy=-4.35;exitPerimeter=0;entryX=0.942;entryY=0.213;entryDx=0;entryDy=0;entryPerimeter=0;dashed=1;" parent="wrZ5Dsxb3-6mwCu-saWG-1" source="MMaYjDYH_nyFm4tbU_4F-7" target="wrZ5Dsxb3-6mwCu-saWG-14" edge="1">
          <mxGeometry relative="1" as="geometry" />
        </mxCell>
        <mxCell id="MMaYjDYH_nyFm4tbU_4F-15" value="Consumes events&lt;div&gt;&lt;br&gt;&lt;/div&gt;" style="edgeLabel;html=1;align=center;verticalAlign=middle;resizable=0;points=[];" parent="MMaYjDYH_nyFm4tbU_4F-13" vertex="1" connectable="0">
          <mxGeometry x="0.2459" y="1" relative="1" as="geometry">
            <mxPoint as="offset" />
          </mxGeometry>
        </mxCell>
        <mxCell id="MMaYjDYH_nyFm4tbU_4F-14" value="Sync user credential [https]" style="edgeStyle=orthogonalEdgeStyle;rounded=0;orthogonalLoop=1;jettySize=auto;html=1;exitX=0;exitY=0.25;exitDx=0;exitDy=0;entryX=1.036;entryY=0.367;entryDx=0;entryDy=0;entryPerimeter=0;dashed=1;" parent="wrZ5Dsxb3-6mwCu-saWG-1" source="wrZ5Dsxb3-6mwCu-saWG-13" target="wrZ5Dsxb3-6mwCu-saWG-39" edge="1">
          <mxGeometry relative="1" as="geometry" />
        </mxCell>
        <mxCell id="MMaYjDYH_nyFm4tbU_4F-5" style="edgeStyle=orthogonalEdgeStyle;rounded=0;orthogonalLoop=1;jettySize=auto;html=1;exitX=0.575;exitY=0.017;exitDx=0;exitDy=0;entryX=1;entryY=0.5;entryDx=0;entryDy=0;dashed=1;exitPerimeter=0;" parent="dnytgtB70Ih8vU8NxAH2-1" source="wrZ5Dsxb3-6mwCu-saWG-10" target="MMaYjDYH_nyFm4tbU_4F-8" edge="1">
          <mxGeometry relative="1" as="geometry">
            <mxPoint x="1042" y="468" as="targetPoint" />
          </mxGeometry>
        </mxCell>
        <mxCell id="MMaYjDYH_nyFm4tbU_4F-6" value="Send webhook to&lt;div&gt;&lt;br&gt;&lt;/div&gt;" style="edgeLabel;html=1;align=center;verticalAlign=middle;resizable=0;points=[];" parent="MMaYjDYH_nyFm4tbU_4F-5" vertex="1" connectable="0">
          <mxGeometry x="-0.1333" y="2" relative="1" as="geometry">
            <mxPoint as="offset" />
          </mxGeometry>
        </mxCell>
        <mxCell id="wrZ5Dsxb3-6mwCu-saWG-10" value="3rd-part Payment Provider" style="rounded=1;whiteSpace=wrap;html=1;fillColor=#647687;fontColor=#ffffff;strokeColor=#314354;shadow=1;" parent="dnytgtB70Ih8vU8NxAH2-1" vertex="1">
          <mxGeometry x="982" y="348" width="120" height="60" as="geometry" />
        </mxCell>
        <mxCell id="wrZ5Dsxb3-6mwCu-saWG-28" style="edgeStyle=orthogonalEdgeStyle;rounded=0;orthogonalLoop=1;jettySize=auto;html=1;exitX=1;exitY=0.75;exitDx=0;exitDy=0;dashed=1;" parent="dnytgtB70Ih8vU8NxAH2-1" source="wrZ5Dsxb3-6mwCu-saWG-11" target="wrZ5Dsxb3-6mwCu-saWG-10" edge="1">
          <mxGeometry relative="1" as="geometry">
            <Array as="points">
              <mxPoint x="670" y="347" />
              <mxPoint x="670" y="380" />
            </Array>
          </mxGeometry>
        </mxCell>
        <mxCell id="wrZ5Dsxb3-6mwCu-saWG-38" value="Process the payment" style="edgeLabel;html=1;align=center;verticalAlign=middle;resizable=0;points=[];" parent="wrZ5Dsxb3-6mwCu-saWG-28" vertex="1" connectable="0">
          <mxGeometry x="-0.1512" y="1" relative="1" as="geometry">
            <mxPoint as="offset" />
          </mxGeometry>
        </mxCell>
        <mxCell id="wrZ5Dsxb3-6mwCu-saWG-3" value="Website / Mobile App" style="shape=process;whiteSpace=wrap;html=1;backgroundOutline=1;" parent="dnytgtB70Ih8vU8NxAH2-1" vertex="1">
          <mxGeometry x="110" y="300" width="110" height="60" as="geometry" />
        </mxCell>
      </root>
    </mxGraphModel>
  </diagram>
  <diagram id="GPYWZSPpuZssqCLQpT9X" name="Payment FlowChart">
    <mxGraphModel dx="1170" dy="751" grid="0" gridSize="10" guides="1" tooltips="1" connect="1" arrows="1" fold="1" page="1" pageScale="1" pageWidth="827" pageHeight="1169" math="0" shadow="0">
      <root>
        <mxCell id="0" />
        <mxCell id="1" parent="0" />
        <mxCell id="kLZNI_Fx4CZcyH1L_vCg-17" style="edgeStyle=orthogonalEdgeStyle;rounded=0;orthogonalLoop=1;jettySize=auto;html=1;exitX=1;exitY=0.5;exitDx=0;exitDy=0;exitPerimeter=0;entryX=0;entryY=0.5;entryDx=0;entryDy=0;" parent="1" source="kLZNI_Fx4CZcyH1L_vCg-4" target="kLZNI_Fx4CZcyH1L_vCg-6" edge="1">
          <mxGeometry relative="1" as="geometry" />
        </mxCell>
        <mxCell id="kLZNI_Fx4CZcyH1L_vCg-4" value="Valid user" style="strokeWidth=2;html=1;shape=mxgraph.flowchart.start_2;whiteSpace=wrap;" parent="1" vertex="1">
          <mxGeometry x="30" y="392" width="40" height="50" as="geometry" />
        </mxCell>
        <mxCell id="kLZNI_Fx4CZcyH1L_vCg-19" style="edgeStyle=orthogonalEdgeStyle;rounded=0;orthogonalLoop=1;jettySize=auto;html=1;exitX=1;exitY=0.5;exitDx=0;exitDy=0;entryX=0;entryY=0.5;entryDx=0;entryDy=0;" parent="1" source="kLZNI_Fx4CZcyH1L_vCg-5" target="kLZNI_Fx4CZcyH1L_vCg-7" edge="1">
          <mxGeometry relative="1" as="geometry" />
        </mxCell>
        <mxCell id="kLZNI_Fx4CZcyH1L_vCg-5" value="Fetch Balance&lt;br&gt;(Wallet API)" style="rounded=1;whiteSpace=wrap;html=1;shadow=1;fillColor=#dae8fc;gradientColor=#7ea6e0;strokeColor=#6c8ebf;" parent="1" vertex="1">
          <mxGeometry x="280" y="387" width="120" height="60" as="geometry" />
        </mxCell>
        <mxCell id="kLZNI_Fx4CZcyH1L_vCg-18" style="edgeStyle=orthogonalEdgeStyle;rounded=0;orthogonalLoop=1;jettySize=auto;html=1;exitX=1;exitY=0.5;exitDx=0;exitDy=0;entryX=0;entryY=0.5;entryDx=0;entryDy=0;" parent="1" source="kLZNI_Fx4CZcyH1L_vCg-6" target="kLZNI_Fx4CZcyH1L_vCg-5" edge="1">
          <mxGeometry relative="1" as="geometry" />
        </mxCell>
        <mxCell id="kLZNI_Fx4CZcyH1L_vCg-32" value="Yes" style="edgeLabel;html=1;align=center;verticalAlign=middle;resizable=0;points=[];" parent="kLZNI_Fx4CZcyH1L_vCg-18" vertex="1" connectable="0">
          <mxGeometry y="2" relative="1" as="geometry">
            <mxPoint as="offset" />
          </mxGeometry>
        </mxCell>
        <mxCell id="kLZNI_Fx4CZcyH1L_vCg-31" value="No" style="edgeStyle=orthogonalEdgeStyle;rounded=0;orthogonalLoop=1;jettySize=auto;html=1;exitX=0.5;exitY=1;exitDx=0;exitDy=0;" parent="1" source="kLZNI_Fx4CZcyH1L_vCg-6" edge="1">
          <mxGeometry relative="1" as="geometry">
            <mxPoint x="210" y="562" as="targetPoint" />
          </mxGeometry>
        </mxCell>
        <mxCell id="kLZNI_Fx4CZcyH1L_vCg-6" value="Validate Payload" style="rhombus;whiteSpace=wrap;html=1;fillColor=#fff2cc;gradientColor=#ffd966;strokeColor=#d6b656;shadow=1;" parent="1" vertex="1">
          <mxGeometry x="140" y="377" width="80" height="80" as="geometry" />
        </mxCell>
        <mxCell id="kLZNI_Fx4CZcyH1L_vCg-7" value="has enough balance" style="rhombus;whiteSpace=wrap;html=1;fillColor=#fff2cc;gradientColor=#ffd966;strokeColor=#d6b656;shadow=1;" parent="1" vertex="1">
          <mxGeometry x="480" y="377" width="80" height="80" as="geometry" />
        </mxCell>
        <mxCell id="kLZNI_Fx4CZcyH1L_vCg-24" style="edgeStyle=orthogonalEdgeStyle;rounded=0;orthogonalLoop=1;jettySize=auto;html=1;exitX=0.5;exitY=1;exitDx=0;exitDy=0;entryX=0.5;entryY=0;entryDx=0;entryDy=0;" parent="1" source="kLZNI_Fx4CZcyH1L_vCg-8" target="kLZNI_Fx4CZcyH1L_vCg-11" edge="1">
          <mxGeometry relative="1" as="geometry" />
        </mxCell>
        <mxCell id="kLZNI_Fx4CZcyH1L_vCg-8" value="Register Payment request (&lt;b&gt;Processing&lt;/b&gt;)" style="rounded=1;whiteSpace=wrap;html=1;shadow=1;fillColor=#dae8fc;gradientColor=#7ea6e0;strokeColor=#6c8ebf;" parent="1" vertex="1">
          <mxGeometry x="620" y="597" width="120" height="60" as="geometry" />
        </mxCell>
        <mxCell id="kLZNI_Fx4CZcyH1L_vCg-23" style="edgeStyle=orthogonalEdgeStyle;rounded=0;orthogonalLoop=1;jettySize=auto;html=1;exitX=0.5;exitY=1;exitDx=0;exitDy=0;entryX=0.5;entryY=0;entryDx=0;entryDy=0;" parent="1" source="kLZNI_Fx4CZcyH1L_vCg-9" target="kLZNI_Fx4CZcyH1L_vCg-8" edge="1">
          <mxGeometry relative="1" as="geometry" />
        </mxCell>
        <mxCell id="kLZNI_Fx4CZcyH1L_vCg-9" value="Produces&lt;div&gt;withdraw from wallet&lt;br&gt;&lt;div&gt;(Broker/ Wallet API)&lt;/div&gt;&lt;/div&gt;" style="rounded=1;whiteSpace=wrap;html=1;shadow=1;fillColor=#d5e8d4;gradientColor=#97d077;strokeColor=#82b366;" parent="1" vertex="1">
          <mxGeometry x="620" y="482" width="120" height="60" as="geometry" />
        </mxCell>
        <mxCell id="kLZNI_Fx4CZcyH1L_vCg-25" style="edgeStyle=orthogonalEdgeStyle;rounded=0;orthogonalLoop=1;jettySize=auto;html=1;exitX=0;exitY=0.5;exitDx=0;exitDy=0;entryX=1;entryY=0.5;entryDx=0;entryDy=0;" parent="1" source="kLZNI_Fx4CZcyH1L_vCg-11" target="kLZNI_Fx4CZcyH1L_vCg-12" edge="1">
          <mxGeometry relative="1" as="geometry" />
        </mxCell>
        <mxCell id="kLZNI_Fx4CZcyH1L_vCg-11" value="Processes payment&lt;br&gt;(3rd-part)" style="rounded=1;whiteSpace=wrap;html=1;shadow=1;fillColor=#e6d0de;gradientColor=#d5739d;strokeColor=#996185;" parent="1" vertex="1">
          <mxGeometry x="620" y="742" width="120" height="60" as="geometry" />
        </mxCell>
        <mxCell id="kLZNI_Fx4CZcyH1L_vCg-26" style="edgeStyle=orthogonalEdgeStyle;rounded=0;orthogonalLoop=1;jettySize=auto;html=1;exitX=0.5;exitY=0;exitDx=0;exitDy=0;entryX=0.5;entryY=1;entryDx=0;entryDy=0;" parent="1" source="kLZNI_Fx4CZcyH1L_vCg-12" target="kLZNI_Fx4CZcyH1L_vCg-13" edge="1">
          <mxGeometry relative="1" as="geometry" />
        </mxCell>
        <mxCell id="kLZNI_Fx4CZcyH1L_vCg-35" value="yes" style="edgeLabel;html=1;align=center;verticalAlign=middle;resizable=0;points=[];" parent="kLZNI_Fx4CZcyH1L_vCg-26" vertex="1" connectable="0">
          <mxGeometry x="-0.0087" relative="1" as="geometry">
            <mxPoint as="offset" />
          </mxGeometry>
        </mxCell>
        <mxCell id="kLZNI_Fx4CZcyH1L_vCg-28" value="No" style="edgeStyle=orthogonalEdgeStyle;rounded=0;orthogonalLoop=1;jettySize=auto;html=1;exitX=0;exitY=0.5;exitDx=0;exitDy=0;entryX=1;entryY=0.5;entryDx=0;entryDy=0;" parent="1" source="kLZNI_Fx4CZcyH1L_vCg-12" target="kLZNI_Fx4CZcyH1L_vCg-16" edge="1">
          <mxGeometry relative="1" as="geometry" />
        </mxCell>
        <mxCell id="kLZNI_Fx4CZcyH1L_vCg-12" value="Response Ok&lt;br&gt;(200)" style="rhombus;whiteSpace=wrap;html=1;fillColor=#fff2cc;gradientColor=#ffd966;strokeColor=#d6b656;shadow=1;" parent="1" vertex="1">
          <mxGeometry x="380" y="727" width="110" height="90" as="geometry" />
        </mxCell>
        <mxCell id="kLZNI_Fx4CZcyH1L_vCg-13" value="Update Payment with external Id" style="rounded=1;whiteSpace=wrap;html=1;shadow=1;fillColor=#dae8fc;gradientColor=#7ea6e0;strokeColor=#6c8ebf;" parent="1" vertex="1">
          <mxGeometry x="375" y="552" width="120" height="60" as="geometry" />
        </mxCell>
        <mxCell id="kLZNI_Fx4CZcyH1L_vCg-14" value="" style="strokeWidth=2;html=1;shape=mxgraph.flowchart.start_2;whiteSpace=wrap;fillColor=#4D4D4D;" parent="1" vertex="1">
          <mxGeometry x="195" y="567" width="30" height="30" as="geometry" />
        </mxCell>
        <mxCell id="kLZNI_Fx4CZcyH1L_vCg-15" value="Produce Topup/ refund transaction&lt;br&gt;(Broker/Wallet API)" style="rounded=1;whiteSpace=wrap;html=1;shadow=1;fillColor=#d5e8d4;gradientColor=#97d077;strokeColor=#82b366;" parent="1" vertex="1">
          <mxGeometry x="150" y="642" width="120" height="60" as="geometry" />
        </mxCell>
        <mxCell id="kLZNI_Fx4CZcyH1L_vCg-29" style="edgeStyle=orthogonalEdgeStyle;rounded=0;orthogonalLoop=1;jettySize=auto;html=1;exitX=0.5;exitY=0;exitDx=0;exitDy=0;entryX=0.5;entryY=1;entryDx=0;entryDy=0;" parent="1" source="kLZNI_Fx4CZcyH1L_vCg-16" target="kLZNI_Fx4CZcyH1L_vCg-15" edge="1">
          <mxGeometry relative="1" as="geometry" />
        </mxCell>
        <mxCell id="kLZNI_Fx4CZcyH1L_vCg-16" value="Update Payment (&lt;b&gt;Failed)&lt;/b&gt; status and external Id" style="rounded=1;whiteSpace=wrap;html=1;shadow=1;fillColor=#dae8fc;gradientColor=#7ea6e0;strokeColor=#6c8ebf;" parent="1" vertex="1">
          <mxGeometry x="150" y="742" width="120" height="60" as="geometry" />
        </mxCell>
        <mxCell id="kLZNI_Fx4CZcyH1L_vCg-20" style="edgeStyle=orthogonalEdgeStyle;rounded=0;orthogonalLoop=1;jettySize=auto;html=1;exitX=1;exitY=0.5;exitDx=0;exitDy=0;entryX=0.383;entryY=-0.05;entryDx=0;entryDy=0;entryPerimeter=0;" parent="1" edge="1">
          <mxGeometry relative="1" as="geometry">
            <mxPoint x="568" y="417" as="sourcePoint" />
            <mxPoint x="673.96" y="479" as="targetPoint" />
          </mxGeometry>
        </mxCell>
        <mxCell id="kLZNI_Fx4CZcyH1L_vCg-34" value="Yes" style="edgeLabel;html=1;align=center;verticalAlign=middle;resizable=0;points=[];" parent="kLZNI_Fx4CZcyH1L_vCg-20" vertex="1" connectable="0">
          <mxGeometry x="-0.5" y="-1" relative="1" as="geometry">
            <mxPoint as="offset" />
          </mxGeometry>
        </mxCell>
        <mxCell id="kLZNI_Fx4CZcyH1L_vCg-21" value="" style="strokeWidth=2;html=1;shape=mxgraph.flowchart.start_2;whiteSpace=wrap;fillColor=#4D4D4D;" parent="1" vertex="1">
          <mxGeometry x="505" y="302" width="30" height="30" as="geometry" />
        </mxCell>
        <mxCell id="kLZNI_Fx4CZcyH1L_vCg-22" style="edgeStyle=orthogonalEdgeStyle;rounded=0;orthogonalLoop=1;jettySize=auto;html=1;exitX=0.5;exitY=0;exitDx=0;exitDy=0;entryX=0.5;entryY=1;entryDx=0;entryDy=0;entryPerimeter=0;" parent="1" source="kLZNI_Fx4CZcyH1L_vCg-7" target="kLZNI_Fx4CZcyH1L_vCg-21" edge="1">
          <mxGeometry relative="1" as="geometry" />
        </mxCell>
        <mxCell id="kLZNI_Fx4CZcyH1L_vCg-33" value="No" style="edgeLabel;html=1;align=center;verticalAlign=middle;resizable=0;points=[];" parent="kLZNI_Fx4CZcyH1L_vCg-22" vertex="1" connectable="0">
          <mxGeometry x="-0.2889" y="3" relative="1" as="geometry">
            <mxPoint as="offset" />
          </mxGeometry>
        </mxCell>
        <mxCell id="kLZNI_Fx4CZcyH1L_vCg-27" style="edgeStyle=orthogonalEdgeStyle;rounded=0;orthogonalLoop=1;jettySize=auto;html=1;exitX=0;exitY=0.5;exitDx=0;exitDy=0;entryX=1;entryY=0.5;entryDx=0;entryDy=0;entryPerimeter=0;" parent="1" source="kLZNI_Fx4CZcyH1L_vCg-13" target="kLZNI_Fx4CZcyH1L_vCg-14" edge="1">
          <mxGeometry relative="1" as="geometry" />
        </mxCell>
        <mxCell id="kLZNI_Fx4CZcyH1L_vCg-30" style="edgeStyle=orthogonalEdgeStyle;rounded=0;orthogonalLoop=1;jettySize=auto;html=1;exitX=0.5;exitY=0;exitDx=0;exitDy=0;entryX=0.5;entryY=1;entryDx=0;entryDy=0;entryPerimeter=0;" parent="1" source="kLZNI_Fx4CZcyH1L_vCg-15" target="kLZNI_Fx4CZcyH1L_vCg-14" edge="1">
          <mxGeometry relative="1" as="geometry" />
        </mxCell>
        <mxCell id="pzKpUoa_b6hs-afFXkaR-3" style="edgeStyle=orthogonalEdgeStyle;rounded=0;orthogonalLoop=1;jettySize=auto;html=1;exitX=1;exitY=0.5;exitDx=0;exitDy=0;exitPerimeter=0;entryX=0;entryY=0.5;entryDx=0;entryDy=0;" parent="1" source="V1rP8RxZJWN2-Ipeop7w-2" target="V1rP8RxZJWN2-Ipeop7w-3" edge="1">
          <mxGeometry relative="1" as="geometry" />
        </mxCell>
        <mxCell id="V1rP8RxZJWN2-Ipeop7w-2" value="Valid user" style="strokeWidth=2;html=1;shape=mxgraph.flowchart.start_2;whiteSpace=wrap;" parent="1" vertex="1">
          <mxGeometry x="170" y="1007" width="40" height="40" as="geometry" />
        </mxCell>
        <mxCell id="pzKpUoa_b6hs-afFXkaR-4" value="" style="edgeStyle=orthogonalEdgeStyle;rounded=0;orthogonalLoop=1;jettySize=auto;html=1;" parent="1" source="V1rP8RxZJWN2-Ipeop7w-3" target="pzKpUoa_b6hs-afFXkaR-2" edge="1">
          <mxGeometry relative="1" as="geometry" />
        </mxCell>
        <mxCell id="V1rP8RxZJWN2-Ipeop7w-3" value="Fetch all payments transactions" style="rounded=1;whiteSpace=wrap;html=1;shadow=1;fillColor=#dae8fc;gradientColor=#7ea6e0;strokeColor=#6c8ebf;" parent="1" vertex="1">
          <mxGeometry x="350" y="997" width="120" height="60" as="geometry" />
        </mxCell>
        <mxCell id="pzKpUoa_b6hs-afFXkaR-1" value="&lt;h1&gt;&lt;font style=&quot;color: rgb(126, 166, 224);&quot;&gt;Payment Service&lt;/font&gt;&lt;/h1&gt;" style="text;html=1;align=center;verticalAlign=middle;resizable=0;points=[];autosize=1;strokeColor=none;fillColor=none;" parent="1" vertex="1">
          <mxGeometry x="304" y="8" width="220" height="70" as="geometry" />
        </mxCell>
        <mxCell id="pzKpUoa_b6hs-afFXkaR-2" value="" style="strokeWidth=2;html=1;shape=mxgraph.flowchart.start_2;whiteSpace=wrap;fillColor=#4D4D4D;" parent="1" vertex="1">
          <mxGeometry x="580" y="1012" width="30" height="30" as="geometry" />
        </mxCell>
        <mxCell id="fNGRV-S3STju9psoLY0L-5" value="&lt;h2&gt;&lt;b style=&quot;background-color: rgb(228, 228, 228);&quot;&gt;Rest Endpoint: POST /payment&amp;nbsp;&lt;/b&gt;&lt;/h2&gt;" style="shape=partialRectangle;whiteSpace=wrap;html=1;left=0;right=0;fillColor=none;dashed=1;dashPattern=1 2;" vertex="1" parent="1">
          <mxGeometry x="28" y="66" width="790" height="50" as="geometry" />
        </mxCell>
        <mxCell id="fNGRV-S3STju9psoLY0L-7" value="&lt;h2&gt;&lt;b style=&quot;background-color: rgb(228, 228, 228);&quot;&gt;Rest Endpoint: GET /payment/{user_id}&lt;/b&gt;&lt;/h2&gt;" style="shape=partialRectangle;whiteSpace=wrap;html=1;left=0;right=0;fillColor=none;dashed=1;dashPattern=1 2;" vertex="1" parent="1">
          <mxGeometry x="28" y="870" width="790" height="60" as="geometry" />
        </mxCell>
        <mxCell id="HFMi9xq19-_13_Lk3Z-F-1" value="&lt;blockquote style=&quot;margin-top: 0px; line-height: 40%;&quot;&gt;json&lt;br&gt;&lt;blockquote style=&quot;margin-top: 0px;&quot;&gt;&lt;font style=&quot;font-size: 11px; line-height: 40%;&quot;&gt;{&lt;/font&gt;&lt;/blockquote&gt;&lt;blockquote style=&quot;margin-top: 0px;&quot;&gt;&lt;font style=&quot;font-size: 11px; line-height: 40%;&quot;&gt;&amp;nbsp; &amp;nbsp; &quot;user_id&quot;: 1000,&lt;/font&gt;&lt;span style=&quot;background-color: transparent; color: light-dark(rgb(0, 0, 0), rgb(255, 255, 255)); font-size: 11px; line-height: 40%;&quot;&gt;&amp;nbsp; &amp;nbsp; &quot;account_id&quot;: 1,&lt;/span&gt;&lt;/blockquote&gt;&lt;blockquote style=&quot;margin-top: 0px;&quot;&gt;&lt;font style=&quot;font-size: 11px; line-height: 40%;&quot;&gt;&amp;nbsp; &amp;nbsp; &quot;currency&quot;: &quot;USD&quot;,&lt;/font&gt;&lt;/blockquote&gt;&lt;blockquote style=&quot;margin-top: 0px;&quot;&gt;&lt;font style=&quot;font-size: 11px; line-height: 40%;&quot;&gt;&amp;nbsp; &amp;nbsp; &quot;holder_name&quot;: &quot;JAMES FAILED&quot;,&lt;/font&gt;&lt;/blockquote&gt;&lt;blockquote style=&quot;margin-top: 0px;&quot;&gt;&lt;font style=&quot;font-size: 11px; line-height: 40%;&quot;&gt;&amp;nbsp; &amp;nbsp; &quot;account_number&quot;: &quot;1885226711&quot;,&lt;/font&gt;&lt;/blockquote&gt;&lt;blockquote style=&quot;margin-top: 0px;&quot;&gt;&lt;font style=&quot;font-size: 11px; line-height: 40%;&quot;&gt;&amp;nbsp; &amp;nbsp; &quot;routing_number&quot;: &quot;211927207&quot;,&lt;/font&gt;&lt;/blockquote&gt;&lt;blockquote style=&quot;margin-top: 0px;&quot;&gt;&lt;font style=&quot;font-size: 11px; line-height: 40%;&quot;&gt;&amp;nbsp; &amp;nbsp; &quot;amount&quot;: 1000&lt;/font&gt;&lt;/blockquote&gt;&lt;blockquote style=&quot;margin-top: 0px;&quot;&gt;&lt;font style=&quot;font-size: 11px; line-height: 40%;&quot;&gt;}&lt;/font&gt;&lt;/blockquote&gt;&lt;/blockquote&gt;&lt;div&gt;&lt;br&gt;&lt;/div&gt;" style="text;html=1;whiteSpace=wrap;overflow=hidden;rounded=0;" vertex="1" parent="1">
          <mxGeometry x="42" y="120" width="770" height="158" as="geometry" />
        </mxCell>
      </root>
    </mxGraphModel>
  </diagram>
  <diagram name="Recipient Account FlowChart" id="o9ua4EXgSdWwWMZdK9c-">
    <mxGraphModel dx="1170" dy="1920" grid="1" gridSize="10" guides="1" tooltips="1" connect="1" arrows="1" fold="1" page="1" pageScale="1" pageWidth="827" pageHeight="1169" math="0" shadow="0">
      <root>
        <mxCell id="fjWfttXOh2PGijRyN93L-0" />
        <mxCell id="fjWfttXOh2PGijRyN93L-1" parent="fjWfttXOh2PGijRyN93L-0" />
        <mxCell id="fjWfttXOh2PGijRyN93L-2" style="edgeStyle=orthogonalEdgeStyle;rounded=0;orthogonalLoop=1;jettySize=auto;html=1;exitX=1;exitY=0.5;exitDx=0;exitDy=0;exitPerimeter=0;entryX=0;entryY=0.5;entryDx=0;entryDy=0;" parent="fjWfttXOh2PGijRyN93L-1" source="fjWfttXOh2PGijRyN93L-3" target="fjWfttXOh2PGijRyN93L-9" edge="1">
          <mxGeometry relative="1" as="geometry" />
        </mxCell>
        <mxCell id="OgokqC4TsX28Rdzj2zre-0" value="New bank account" style="edgeLabel;html=1;align=center;verticalAlign=middle;resizable=0;points=[];" parent="fjWfttXOh2PGijRyN93L-2" vertex="1" connectable="0">
          <mxGeometry x="-0.2857" y="-1" relative="1" as="geometry">
            <mxPoint as="offset" />
          </mxGeometry>
        </mxCell>
        <mxCell id="fjWfttXOh2PGijRyN93L-3" value="Valid User" style="strokeWidth=2;html=1;shape=mxgraph.flowchart.start_2;whiteSpace=wrap;" parent="fjWfttXOh2PGijRyN93L-1" vertex="1">
          <mxGeometry x="120" y="-542.5" width="45" height="45" as="geometry" />
        </mxCell>
        <mxCell id="fjWfttXOh2PGijRyN93L-4" style="edgeStyle=orthogonalEdgeStyle;rounded=0;orthogonalLoop=1;jettySize=auto;html=1;exitX=1;exitY=0.5;exitDx=0;exitDy=0;entryX=0;entryY=0.5;entryDx=0;entryDy=0;" parent="fjWfttXOh2PGijRyN93L-1" source="fjWfttXOh2PGijRyN93L-5" edge="1">
          <mxGeometry relative="1" as="geometry">
            <mxPoint x="664" y="-520" as="targetPoint" />
          </mxGeometry>
        </mxCell>
        <mxCell id="fjWfttXOh2PGijRyN93L-5" value="Create new recipient bank account&lt;br&gt;(User Service)" style="rounded=1;whiteSpace=wrap;html=1;shadow=1;fillColor=#dae8fc;gradientColor=#7ea6e0;strokeColor=#6c8ebf;" parent="fjWfttXOh2PGijRyN93L-1" vertex="1">
          <mxGeometry x="464" y="-550" width="120" height="60" as="geometry" />
        </mxCell>
        <mxCell id="fjWfttXOh2PGijRyN93L-6" style="edgeStyle=orthogonalEdgeStyle;rounded=0;orthogonalLoop=1;jettySize=auto;html=1;exitX=1;exitY=0.5;exitDx=0;exitDy=0;entryX=0;entryY=0.5;entryDx=0;entryDy=0;" parent="fjWfttXOh2PGijRyN93L-1" source="fjWfttXOh2PGijRyN93L-9" target="fjWfttXOh2PGijRyN93L-5" edge="1">
          <mxGeometry relative="1" as="geometry" />
        </mxCell>
        <mxCell id="fjWfttXOh2PGijRyN93L-7" value="Yes" style="edgeLabel;html=1;align=center;verticalAlign=middle;resizable=0;points=[];" parent="fjWfttXOh2PGijRyN93L-6" vertex="1" connectable="0">
          <mxGeometry y="2" relative="1" as="geometry">
            <mxPoint as="offset" />
          </mxGeometry>
        </mxCell>
        <mxCell id="fjWfttXOh2PGijRyN93L-8" value="No" style="edgeStyle=orthogonalEdgeStyle;rounded=0;orthogonalLoop=1;jettySize=auto;html=1;exitX=0.5;exitY=1;exitDx=0;exitDy=0;entryX=0.5;entryY=0;entryDx=0;entryDy=0;entryPerimeter=0;" parent="fjWfttXOh2PGijRyN93L-1" source="fjWfttXOh2PGijRyN93L-9" target="fjWfttXOh2PGijRyN93L-22" edge="1">
          <mxGeometry relative="1" as="geometry">
            <mxPoint x="394" y="-375" as="targetPoint" />
          </mxGeometry>
        </mxCell>
        <mxCell id="fjWfttXOh2PGijRyN93L-9" value="Validate Payload" style="rhombus;whiteSpace=wrap;html=1;fillColor=#fff2cc;gradientColor=#ffd966;strokeColor=#d6b656;shadow=1;" parent="fjWfttXOh2PGijRyN93L-1" vertex="1">
          <mxGeometry x="310" y="-560" width="80" height="80" as="geometry" />
        </mxCell>
        <mxCell id="fjWfttXOh2PGijRyN93L-22" value="" style="strokeWidth=2;html=1;shape=mxgraph.flowchart.start_2;whiteSpace=wrap;fillColor=#4D4D4D;" parent="fjWfttXOh2PGijRyN93L-1" vertex="1">
          <mxGeometry x="335" y="-390" width="30" height="30" as="geometry" />
        </mxCell>
        <mxCell id="fjWfttXOh2PGijRyN93L-28" value="" style="strokeWidth=2;html=1;shape=mxgraph.flowchart.start_2;whiteSpace=wrap;fillColor=#4D4D4D;" parent="fjWfttXOh2PGijRyN93L-1" vertex="1">
          <mxGeometry x="664" y="-535" width="30" height="30" as="geometry" />
        </mxCell>
        <mxCell id="OgokqC4TsX28Rdzj2zre-1" style="edgeStyle=orthogonalEdgeStyle;rounded=0;orthogonalLoop=1;jettySize=auto;html=1;exitX=1;exitY=0.5;exitDx=0;exitDy=0;exitPerimeter=0;" parent="fjWfttXOh2PGijRyN93L-1" source="OgokqC4TsX28Rdzj2zre-3" edge="1">
          <mxGeometry relative="1" as="geometry">
            <mxPoint x="370" y="-901" as="targetPoint" />
          </mxGeometry>
        </mxCell>
        <mxCell id="OgokqC4TsX28Rdzj2zre-2" value="List user&#39;s bank account" style="edgeLabel;html=1;align=center;verticalAlign=middle;resizable=0;points=[];" parent="OgokqC4TsX28Rdzj2zre-1" vertex="1" connectable="0">
          <mxGeometry x="-0.2857" y="-1" relative="1" as="geometry">
            <mxPoint as="offset" />
          </mxGeometry>
        </mxCell>
        <mxCell id="OgokqC4TsX28Rdzj2zre-3" value="Valid User" style="strokeWidth=2;html=1;shape=mxgraph.flowchart.start_2;whiteSpace=wrap;fillColor=none;" parent="fjWfttXOh2PGijRyN93L-1" vertex="1">
          <mxGeometry x="120" y="-926" width="50" height="50" as="geometry" />
        </mxCell>
        <mxCell id="OgokqC4TsX28Rdzj2zre-4" style="edgeStyle=orthogonalEdgeStyle;rounded=0;orthogonalLoop=1;jettySize=auto;html=1;exitX=1;exitY=0.5;exitDx=0;exitDy=0;entryX=0;entryY=0.5;entryDx=0;entryDy=0;" parent="fjWfttXOh2PGijRyN93L-1" source="OgokqC4TsX28Rdzj2zre-5" edge="1">
          <mxGeometry relative="1" as="geometry">
            <mxPoint x="679" y="-901" as="targetPoint" />
          </mxGeometry>
        </mxCell>
        <mxCell id="OgokqC4TsX28Rdzj2zre-5" value="Fetch all user&#39;s bank account&lt;br&gt;(User Service)" style="rounded=1;whiteSpace=wrap;html=1;shadow=1;fillColor=#dae8fc;gradientColor=#7ea6e0;strokeColor=#6c8ebf;" parent="fjWfttXOh2PGijRyN93L-1" vertex="1">
          <mxGeometry x="374" y="-931" width="120" height="60" as="geometry" />
        </mxCell>
        <mxCell id="OgokqC4TsX28Rdzj2zre-11" value="" style="strokeWidth=2;html=1;shape=mxgraph.flowchart.start_2;whiteSpace=wrap;fillColor=#4D4D4D;" parent="fjWfttXOh2PGijRyN93L-1" vertex="1">
          <mxGeometry x="679" y="-916" width="30" height="30" as="geometry" />
        </mxCell>
        <mxCell id="6z_VM3ugcJpkj3VTgtWx-0" value="&lt;h1&gt;User Service (Bank Account)&lt;/h1&gt;" style="text;html=1;align=center;verticalAlign=middle;resizable=0;points=[];autosize=1;strokeColor=none;fillColor=none;fontColor=#7EA6E0;" parent="fjWfttXOh2PGijRyN93L-1" vertex="1">
          <mxGeometry x="239" y="-1116" width="350" height="70" as="geometry" />
        </mxCell>
        <mxCell id="5HLU5JIHj1RLFswOGW6F-0" value="&lt;h2&gt;&lt;b style=&quot;background-color: rgb(228, 228, 228);&quot;&gt;Rest Endpoint: POST /users/{user_id}/bank-accounts&lt;/b&gt;&lt;/h2&gt;" style="shape=partialRectangle;whiteSpace=wrap;html=1;left=0;right=0;fillColor=none;dashed=1;dashPattern=1 2;" vertex="1" parent="fjWfttXOh2PGijRyN93L-1">
          <mxGeometry x="28" y="-810" width="780" height="65" as="geometry" />
        </mxCell>
        <mxCell id="5HLU5JIHj1RLFswOGW6F-1" value="&lt;h2 style=&quot;color: rgb(0, 0, 0); background-color: rgb(236, 236, 236);&quot;&gt;&lt;b&gt;Rest Endpoint: GET /users/{user_id}/bank-accounts&lt;/b&gt;&lt;/h2&gt;" style="shape=partialRectangle;whiteSpace=wrap;html=1;left=0;right=0;fillColor=none;dashed=1;dashPattern=1 2;" vertex="1" parent="fjWfttXOh2PGijRyN93L-1">
          <mxGeometry x="18" y="-1040" width="780" height="60" as="geometry" />
        </mxCell>
        <mxCell id="eOJI2xvYDCugnHQjYPgG-2" value="&lt;blockquote style=&quot;margin-top: 0px;&quot;&gt;json&lt;br&gt;{&lt;br&gt;&amp;nbsp; &quot;name_surname&quot;: &quot;Jane Doe&quot;,&lt;br&gt;&amp;nbsp; &quot;routing_number&quot;: &quot;123456789&quot;,&lt;br&gt;&amp;nbsp; &quot;national_id&quot;: &quot;ID987654321&quot;,&lt;br&gt;&amp;nbsp; &quot;account_number&quot;: &quot;9988776655&quot;,&lt;br&gt;&amp;nbsp; &quot;bank_name&quot;: &quot;National Bank&quot;&lt;br&gt;}&lt;/blockquote&gt;&lt;div&gt;&lt;br&gt;&lt;/div&gt;" style="text;html=1;whiteSpace=wrap;overflow=hidden;rounded=0;" vertex="1" parent="fjWfttXOh2PGijRyN93L-1">
          <mxGeometry x="38" y="-740" width="770" height="130" as="geometry" />
        </mxCell>
      </root>
    </mxGraphModel>
  </diagram>
  <diagram id="-nmjZNzSCVQLPPtcuDqp" name="Sequence diagram">
    <mxGraphModel dx="1170" dy="751" grid="0" gridSize="10" guides="1" tooltips="1" connect="1" arrows="1" fold="1" page="1" pageScale="1" pageWidth="827" pageHeight="1169" math="0" shadow="0">
      <root>
        <mxCell id="0" />
        <mxCell id="1" parent="0" />
        <mxCell id="yCWHwL1h4B50N9S-Sxqj-1" value="USER" style="rounded=1;whiteSpace=wrap;html=1;fillColor=#fff2cc;gradientColor=#ffd966;strokeColor=#d6b656;" vertex="1" parent="1">
          <mxGeometry x="31" y="71" width="120" height="60" as="geometry" />
        </mxCell>
        <mxCell id="yCWHwL1h4B50N9S-Sxqj-2" value="UI" style="rounded=1;whiteSpace=wrap;html=1;fillColor=#f5f5f5;gradientColor=#b3b3b3;strokeColor=#666666;" vertex="1" parent="1">
          <mxGeometry x="193" y="71" width="120" height="60" as="geometry" />
        </mxCell>
        <mxCell id="yCWHwL1h4B50N9S-Sxqj-3" value="USER SERVICE" style="rounded=1;whiteSpace=wrap;html=1;fillColor=#dae8fc;gradientColor=#7ea6e0;strokeColor=#6c8ebf;" vertex="1" parent="1">
          <mxGeometry x="349" y="69" width="120" height="60" as="geometry" />
        </mxCell>
        <mxCell id="yCWHwL1h4B50N9S-Sxqj-4" value="WALLET SERVICE" style="rounded=1;whiteSpace=wrap;html=1;fillColor=#dae8fc;gradientColor=#7ea6e0;strokeColor=#6c8ebf;" vertex="1" parent="1">
          <mxGeometry x="509" y="71" width="120" height="60" as="geometry" />
        </mxCell>
        <mxCell id="yCWHwL1h4B50N9S-Sxqj-5" value="PAYMENT SERVICE" style="rounded=1;whiteSpace=wrap;html=1;fillColor=#dae8fc;gradientColor=#7ea6e0;strokeColor=#6c8ebf;" vertex="1" parent="1">
          <mxGeometry x="665" y="71" width="120" height="60" as="geometry" />
        </mxCell>
        <mxCell id="yCWHwL1h4B50N9S-Sxqj-8" value="" style="endArrow=none;dashed=1;html=1;rounded=0;entryX=0.5;entryY=1;entryDx=0;entryDy=0;" edge="1" parent="1" target="yCWHwL1h4B50N9S-Sxqj-1">
          <mxGeometry width="50" height="50" relative="1" as="geometry">
            <mxPoint x="91" y="726" as="sourcePoint" />
            <mxPoint x="438" y="386" as="targetPoint" />
          </mxGeometry>
        </mxCell>
        <mxCell id="yCWHwL1h4B50N9S-Sxqj-9" value="" style="endArrow=none;dashed=1;html=1;rounded=0;entryX=0.5;entryY=1;entryDx=0;entryDy=0;" edge="1" parent="1">
          <mxGeometry width="50" height="50" relative="1" as="geometry">
            <mxPoint x="256" y="723" as="sourcePoint" />
            <mxPoint x="251" y="129" as="targetPoint" />
          </mxGeometry>
        </mxCell>
        <mxCell id="yCWHwL1h4B50N9S-Sxqj-10" value="" style="endArrow=none;dashed=1;html=1;rounded=0;entryX=0.5;entryY=1;entryDx=0;entryDy=0;" edge="1" parent="1">
          <mxGeometry width="50" height="50" relative="1" as="geometry">
            <mxPoint x="414" y="727" as="sourcePoint" />
            <mxPoint x="410" y="129" as="targetPoint" />
            <Array as="points">
              <mxPoint x="410" y="432" />
            </Array>
          </mxGeometry>
        </mxCell>
        <mxCell id="yCWHwL1h4B50N9S-Sxqj-11" value="" style="endArrow=none;dashed=1;html=1;rounded=0;entryX=0.5;entryY=1;entryDx=0;entryDy=0;" edge="1" parent="1">
          <mxGeometry width="50" height="50" relative="1" as="geometry">
            <mxPoint x="571" y="732" as="sourcePoint" />
            <mxPoint x="568" y="131" as="targetPoint" />
          </mxGeometry>
        </mxCell>
        <mxCell id="yCWHwL1h4B50N9S-Sxqj-12" value="" style="endArrow=none;dashed=1;html=1;rounded=0;entryX=0.5;entryY=1;entryDx=0;entryDy=0;" edge="1" parent="1">
          <mxGeometry width="50" height="50" relative="1" as="geometry">
            <mxPoint x="732" y="725" as="sourcePoint" />
            <mxPoint x="730" y="131" as="targetPoint" />
          </mxGeometry>
        </mxCell>
        <mxCell id="yCWHwL1h4B50N9S-Sxqj-13" value="" style="endArrow=classic;html=1;rounded=0;" edge="1" parent="1">
          <mxGeometry width="50" height="50" relative="1" as="geometry">
            <mxPoint x="89" y="173" as="sourcePoint" />
            <mxPoint x="248" y="171" as="targetPoint" />
          </mxGeometry>
        </mxCell>
        <mxCell id="yCWHwL1h4B50N9S-Sxqj-14" value="request withdraw" style="edgeLabel;html=1;align=center;verticalAlign=middle;resizable=0;points=[];" vertex="1" connectable="0" parent="yCWHwL1h4B50N9S-Sxqj-13">
          <mxGeometry x="-0.0064" relative="1" as="geometry">
            <mxPoint as="offset" />
          </mxGeometry>
        </mxCell>
        <mxCell id="yCWHwL1h4B50N9S-Sxqj-15" value="" style="endArrow=classic;html=1;rounded=0;" edge="1" parent="1">
          <mxGeometry width="50" height="50" relative="1" as="geometry">
            <mxPoint x="252" y="188" as="sourcePoint" />
            <mxPoint x="411" y="186" as="targetPoint" />
          </mxGeometry>
        </mxCell>
        <mxCell id="yCWHwL1h4B50N9S-Sxqj-17" value="&lt;p style=&quot;margin: 0px; font-variant-numeric: normal; font-variant-east-asian: normal; font-variant-alternates: normal; font-size-adjust: none; font-kerning: auto; font-optical-sizing: auto; font-feature-settings: normal; font-variation-settings: normal; font-variant-position: normal; font-variant-emoji: normal; font-stretch: normal; line-height: normal; font-family: &amp;quot;Helvetica Neue&amp;quot;; text-align: start; text-wrap-mode: wrap;&quot; class=&quot;p1&quot;&gt;&lt;font style=&quot;font-size: 10px;&quot;&gt;GET /users/{id}/bank-accounts&lt;/font&gt;&lt;/p&gt;" style="edgeLabel;html=1;align=center;verticalAlign=middle;resizable=0;points=[];" vertex="1" connectable="0" parent="yCWHwL1h4B50N9S-Sxqj-15">
          <mxGeometry x="0.0063" relative="1" as="geometry">
            <mxPoint as="offset" />
          </mxGeometry>
        </mxCell>
        <mxCell id="yCWHwL1h4B50N9S-Sxqj-18" value="" style="endArrow=classic;html=1;rounded=0;" edge="1" parent="1">
          <mxGeometry width="50" height="50" relative="1" as="geometry">
            <mxPoint x="407" y="218" as="sourcePoint" />
            <mxPoint x="252" y="218" as="targetPoint" />
          </mxGeometry>
        </mxCell>
        <mxCell id="yCWHwL1h4B50N9S-Sxqj-19" value="bank account data or none" style="edgeLabel;html=1;align=center;verticalAlign=middle;resizable=0;points=[];" vertex="1" connectable="0" parent="yCWHwL1h4B50N9S-Sxqj-18">
          <mxGeometry x="0.0065" y="-1" relative="1" as="geometry">
            <mxPoint as="offset" />
          </mxGeometry>
        </mxCell>
        <mxCell id="yCWHwL1h4B50N9S-Sxqj-20" value="" style="endArrow=classic;html=1;rounded=0;" edge="1" parent="1">
          <mxGeometry width="50" height="50" relative="1" as="geometry">
            <mxPoint x="251" y="252" as="sourcePoint" />
            <mxPoint x="570" y="250" as="targetPoint" />
            <Array as="points">
              <mxPoint x="323" y="252" />
            </Array>
          </mxGeometry>
        </mxCell>
        <mxCell id="yCWHwL1h4B50N9S-Sxqj-21" value="&lt;p style=&quot;margin: 0px; font-variant-numeric: normal; font-variant-east-asian: normal; font-variant-alternates: normal; font-size-adjust: none; font-kerning: auto; font-optical-sizing: auto; font-feature-settings: normal; font-variation-settings: normal; font-variant-position: normal; font-variant-emoji: normal; font-stretch: normal; line-height: normal; font-family: &amp;quot;Helvetica Neue&amp;quot;; text-align: start; text-wrap-mode: wrap;&quot; class=&quot;p1&quot;&gt;&lt;span style=&quot;font-size: 10px;&quot;&gt;GET /wallets/balance&lt;/span&gt;&lt;span style=&quot;color: rgb(33, 33, 33); font-family: Inter, system-ui, -apple-system, &amp;quot;system-ui&amp;quot;, &amp;quot;Segoe UI&amp;quot;, Roboto, Oxygen, Ubuntu, Cantarell, &amp;quot;Fira Sans&amp;quot;, &amp;quot;Droid Sans&amp;quot;, Helvetica, Arial, sans-serif; white-space-collapse: preserve;&quot;&gt;&lt;font style=&quot;font-size: 9px;&quot;&gt;?user_id={ser_id}&lt;/font&gt;&lt;/span&gt;&lt;/p&gt;" style="edgeLabel;html=1;align=center;verticalAlign=middle;resizable=0;points=[];" vertex="1" connectable="0" parent="yCWHwL1h4B50N9S-Sxqj-20">
          <mxGeometry x="-0.0064" relative="1" as="geometry">
            <mxPoint as="offset" />
          </mxGeometry>
        </mxCell>
        <mxCell id="yCWHwL1h4B50N9S-Sxqj-22" value="" style="endArrow=classic;html=1;rounded=0;" edge="1" parent="1">
          <mxGeometry width="50" height="50" relative="1" as="geometry">
            <mxPoint x="569" y="277" as="sourcePoint" />
            <mxPoint x="257" y="280" as="targetPoint" />
          </mxGeometry>
        </mxCell>
        <mxCell id="yCWHwL1h4B50N9S-Sxqj-23" value="balance" style="edgeLabel;html=1;align=center;verticalAlign=middle;resizable=0;points=[];" vertex="1" connectable="0" parent="yCWHwL1h4B50N9S-Sxqj-22">
          <mxGeometry x="0.0505" y="-1" relative="1" as="geometry">
            <mxPoint as="offset" />
          </mxGeometry>
        </mxCell>
        <mxCell id="yCWHwL1h4B50N9S-Sxqj-24" value="" style="endArrow=classic;html=1;rounded=0;" edge="1" parent="1">
          <mxGeometry width="50" height="50" relative="1" as="geometry">
            <mxPoint x="91" y="320" as="sourcePoint" />
            <mxPoint x="252" y="320" as="targetPoint" />
          </mxGeometry>
        </mxCell>
        <mxCell id="yCWHwL1h4B50N9S-Sxqj-25" value="submit withdraw amount" style="edgeLabel;html=1;align=center;verticalAlign=middle;resizable=0;points=[];" vertex="1" connectable="0" parent="yCWHwL1h4B50N9S-Sxqj-24">
          <mxGeometry x="-0.0667" relative="1" as="geometry">
            <mxPoint as="offset" />
          </mxGeometry>
        </mxCell>
        <mxCell id="yCWHwL1h4B50N9S-Sxqj-26" value="" style="endArrow=classic;html=1;rounded=0;" edge="1" parent="1">
          <mxGeometry width="50" height="50" relative="1" as="geometry">
            <mxPoint x="251" y="340" as="sourcePoint" />
            <mxPoint x="731" y="336" as="targetPoint" />
          </mxGeometry>
        </mxCell>
        <mxCell id="yCWHwL1h4B50N9S-Sxqj-27" value="&lt;p style=&quot;margin: 0px; font-variant-numeric: normal; font-variant-east-asian: normal; font-variant-alternates: normal; font-size-adjust: none; font-kerning: auto; font-optical-sizing: auto; font-feature-settings: normal; font-variation-settings: normal; font-variant-position: normal; font-variant-emoji: normal; font-stretch: normal; line-height: normal; font-family: &amp;quot;Helvetica Neue&amp;quot;; text-align: start; text-wrap-mode: wrap;&quot; class=&quot;p1&quot;&gt;&lt;font style=&quot;font-size: 10px;&quot;&gt;POST /payment&lt;/font&gt;&lt;/p&gt;" style="edgeLabel;html=1;align=center;verticalAlign=middle;resizable=0;points=[];" vertex="1" connectable="0" parent="yCWHwL1h4B50N9S-Sxqj-26">
          <mxGeometry x="-0.1249" y="2" relative="1" as="geometry">
            <mxPoint as="offset" />
          </mxGeometry>
        </mxCell>
        <mxCell id="yCWHwL1h4B50N9S-Sxqj-28" value="" style="endArrow=classic;html=1;rounded=0;" edge="1" parent="1">
          <mxGeometry width="50" height="50" relative="1" as="geometry">
            <mxPoint x="730" y="372" as="sourcePoint" />
            <mxPoint x="569" y="372" as="targetPoint" />
          </mxGeometry>
        </mxCell>
        <mxCell id="yCWHwL1h4B50N9S-Sxqj-29" value="&lt;span style=&quot;font-family: &amp;quot;Helvetica Neue&amp;quot;; font-size: 10px; text-align: start; text-wrap-mode: wrap;&quot;&gt;GET /wallets/balance&lt;/span&gt;&lt;span style=&quot;color: rgb(33, 33, 33); font-family: Inter, system-ui, -apple-system, &amp;quot;system-ui&amp;quot;, &amp;quot;Segoe UI&amp;quot;, Roboto, Oxygen, Ubuntu, Cantarell, &amp;quot;Fira Sans&amp;quot;, &amp;quot;Droid Sans&amp;quot;, Helvetica, Arial, sans-serif; text-align: left; white-space: pre-wrap;&quot;&gt;&lt;font style=&quot;font-size: 9px;&quot;&gt;?user_id={ser_id}&lt;/font&gt;&lt;/span&gt;" style="edgeLabel;html=1;align=center;verticalAlign=middle;resizable=0;points=[];" vertex="1" connectable="0" parent="yCWHwL1h4B50N9S-Sxqj-28">
          <mxGeometry x="-0.0062" y="-1" relative="1" as="geometry">
            <mxPoint as="offset" />
          </mxGeometry>
        </mxCell>
        <mxCell id="yCWHwL1h4B50N9S-Sxqj-30" value="" style="endArrow=classic;html=1;rounded=0;" edge="1" parent="1">
          <mxGeometry width="50" height="50" relative="1" as="geometry">
            <mxPoint x="731" y="419" as="sourcePoint" />
            <mxPoint x="574" y="419" as="targetPoint" />
          </mxGeometry>
        </mxCell>
        <mxCell id="yCWHwL1h4B50N9S-Sxqj-31" value="&lt;p style=&quot;margin: 0px; font-variant-numeric: normal; font-variant-east-asian: normal; font-variant-alternates: normal; font-size-adjust: none; font-kerning: auto; font-optical-sizing: auto; font-feature-settings: normal; font-variation-settings: normal; font-variant-position: normal; font-variant-emoji: normal; font-stretch: normal; line-height: normal; font-family: &amp;quot;Helvetica Neue&amp;quot;; text-align: start; text-wrap-mode: wrap;&quot; class=&quot;p1&quot;&gt;&lt;font style=&quot;font-size: 10px;&quot;&gt;POST /wallets/&lt;/font&gt;&lt;font style=&quot;font-size: 10px;&quot;&gt;&lt;span style=&quot;color: rgb(33, 33, 33); font-family: Inter, system-ui, -apple-system, &amp;quot;system-ui&amp;quot;, &amp;quot;Segoe UI&amp;quot;, Roboto, Oxygen, Ubuntu, Cantarell, &amp;quot;Fira Sans&amp;quot;, &amp;quot;Droid Sans&amp;quot;, Helvetica, Arial, sans-serif; white-space-collapse: preserve; background-color: light-dark(#ffffff, var(--ge-dark-color, #121212));&quot;&gt;transactions&lt;/span&gt;&lt;/font&gt;&lt;/p&gt;" style="edgeLabel;html=1;align=center;verticalAlign=middle;resizable=0;points=[];" vertex="1" connectable="0" parent="yCWHwL1h4B50N9S-Sxqj-30">
          <mxGeometry x="0.0191" relative="1" as="geometry">
            <mxPoint as="offset" />
          </mxGeometry>
        </mxCell>
        <mxCell id="j_zoymVJ-C-JkWBiacCA-1" value="" style="endArrow=classic;html=1;rounded=0;" edge="1" parent="1">
          <mxGeometry width="50" height="50" relative="1" as="geometry">
            <mxPoint x="731" y="457" as="sourcePoint" />
            <mxPoint x="731" y="539" as="targetPoint" />
            <Array as="points">
              <mxPoint x="787" y="457" />
              <mxPoint x="787" y="539" />
            </Array>
          </mxGeometry>
        </mxCell>
        <mxCell id="j_zoymVJ-C-JkWBiacCA-2" value="&lt;p style=&quot;margin: 0px; font-variant-numeric: normal; font-variant-east-asian: normal; font-variant-alternates: normal; font-size-adjust: none; font-kerning: auto; font-optical-sizing: auto; font-feature-settings: normal; font-variation-settings: normal; font-variant-position: normal; font-variant-emoji: normal; font-stretch: normal; line-height: normal; font-family: &amp;quot;Helvetica Neue&amp;quot;; text-align: start; text-wrap-mode: wrap;&quot; class=&quot;p1&quot;&gt;&lt;font style=&quot;font-size: 9px;&quot;&gt;Validate &amp;amp; deduct balance&lt;/font&gt;&lt;/p&gt;" style="edgeLabel;html=1;align=center;verticalAlign=middle;resizable=0;points=[];" vertex="1" connectable="0" parent="j_zoymVJ-C-JkWBiacCA-1">
          <mxGeometry x="0.0412" relative="1" as="geometry">
            <mxPoint as="offset" />
          </mxGeometry>
        </mxCell>
        <mxCell id="j_zoymVJ-C-JkWBiacCA-3" value="External Provider" style="rounded=1;whiteSpace=wrap;html=1;fillColor=#e6d0de;strokeColor=#996185;gradientColor=#d5739d;" vertex="1" parent="1">
          <mxGeometry x="821" y="71" width="120" height="60" as="geometry" />
        </mxCell>
        <mxCell id="j_zoymVJ-C-JkWBiacCA-4" value="" style="endArrow=none;dashed=1;html=1;rounded=0;entryX=0.5;entryY=1;entryDx=0;entryDy=0;" edge="1" parent="1">
          <mxGeometry width="50" height="50" relative="1" as="geometry">
            <mxPoint x="882" y="725" as="sourcePoint" />
            <mxPoint x="880" y="131" as="targetPoint" />
          </mxGeometry>
        </mxCell>
        <mxCell id="j_zoymVJ-C-JkWBiacCA-5" value="" style="endArrow=classic;html=1;rounded=0;" edge="1" parent="1">
          <mxGeometry width="50" height="50" relative="1" as="geometry">
            <mxPoint x="731" y="554" as="sourcePoint" />
            <mxPoint x="882" y="554" as="targetPoint" />
          </mxGeometry>
        </mxCell>
        <mxCell id="j_zoymVJ-C-JkWBiacCA-6" value="process payment" style="edgeLabel;html=1;align=center;verticalAlign=middle;resizable=0;points=[];" vertex="1" connectable="0" parent="j_zoymVJ-C-JkWBiacCA-5">
          <mxGeometry x="-0.0066" y="2" relative="1" as="geometry">
            <mxPoint as="offset" />
          </mxGeometry>
        </mxCell>
        <mxCell id="j_zoymVJ-C-JkWBiacCA-7" value="" style="endArrow=classic;html=1;rounded=0;" edge="1" parent="1">
          <mxGeometry width="50" height="50" relative="1" as="geometry">
            <mxPoint x="881" y="594" as="sourcePoint" />
            <mxPoint x="728" y="594" as="targetPoint" />
          </mxGeometry>
        </mxCell>
        <mxCell id="j_zoymVJ-C-JkWBiacCA-8" value="processing" style="edgeLabel;html=1;align=center;verticalAlign=middle;resizable=0;points=[];" vertex="1" connectable="0" parent="j_zoymVJ-C-JkWBiacCA-7">
          <mxGeometry x="0.0458" y="-1" relative="1" as="geometry">
            <mxPoint as="offset" />
          </mxGeometry>
        </mxCell>
        <mxCell id="j_zoymVJ-C-JkWBiacCA-9" value="" style="endArrow=classic;html=1;rounded=0;" edge="1" parent="1">
          <mxGeometry width="50" height="50" relative="1" as="geometry">
            <mxPoint x="732" y="626" as="sourcePoint" />
            <mxPoint x="89" y="626" as="targetPoint" />
          </mxGeometry>
        </mxCell>
        <mxCell id="j_zoymVJ-C-JkWBiacCA-10" value="processing payment" style="edgeLabel;html=1;align=center;verticalAlign=middle;resizable=0;points=[];" vertex="1" connectable="0" parent="j_zoymVJ-C-JkWBiacCA-9">
          <mxGeometry x="-0.0607" y="-3" relative="1" as="geometry">
            <mxPoint as="offset" />
          </mxGeometry>
        </mxCell>
      </root>
    </mxGraphModel>
  </diagram>
</mxfile>
